<svg width="36" height="33" viewBox="0 0 36 33" fill="none" xmlns="http://www.w3.org/2000/svg">
<g clip-path="url(#clip0_53_182)">
<path d="M25.7872 24.1776C28.1392 24.1776 30.046 22.2708 30.046 19.9187C30.046 17.5667 28.1392 15.6599 25.7872 15.6599C23.4351 15.6599 21.5283 17.5667 21.5283 19.9187C21.5283 22.2708 23.4351 24.1776 25.7872 24.1776Z" fill="white"/>
<path d="M0 12.7413V13.3713C0 14.2842 0.498539 15.1237 1.29981 15.5608C6.2487 15.5458 11.414 18.5606 16.7519 23.9862C16.9533 24.0961 17.1182 24.2627 17.226 24.4654C18.9148 27.6387 22.1951 29.6101 25.787 29.6101C26.3899 29.6101 26.9803 29.5542 27.5527 29.4482C27.8752 31.3324 29.5525 32.7602 31.5432 32.6855C33.5193 32.6116 35.1429 31.0447 35.2842 29.072C35.3859 27.6511 34.7161 26.359 33.6335 25.5986C34.7959 23.9973 35.4813 22.0289 35.4778 19.9029C35.4697 14.5435 31.0657 10.2272 25.7063 10.2272H15.3903C14.7135 10.2272 14.0819 10.5673 13.7092 11.1324L12.6185 12.7864C12.4197 13.1841 9.32237 12.9097 9.32237 12.2617V11.2595C9.32237 10.6896 8.86033 10.2276 8.29051 10.2276H2.51373C1.12547 10.2276 0 11.3531 0 12.7413ZM29.8685 29.0673C30.6208 28.543 31.3465 27.977 32.0366 27.3772C32.5781 27.6224 32.9474 28.1673 32.9474 28.7886C32.9474 29.6448 32.2509 30.3413 31.3946 30.3413C30.6342 30.3413 29.9999 29.7913 29.8685 29.0677V29.0673ZM19.1815 19.9184C19.1815 16.2762 22.1448 13.3129 25.787 13.3129C29.4292 13.3129 32.3926 16.2762 32.3926 19.9184C32.3926 23.5606 29.4292 26.5239 25.787 26.5239C22.1448 26.5239 19.1815 23.5606 19.1815 19.9184Z" fill="#15BFFD"/>
<path d="M11.3396 8.27943C10.6916 8.27943 10.166 7.75384 10.166 7.10587V1.48496C10.166 0.836993 10.6916 0.311401 11.3396 0.311401C11.9875 0.311401 12.5131 0.836993 12.5131 1.48496V7.10587C12.5131 7.75384 11.9875 8.27943 11.3396 8.27943Z" fill="white"/>
<path d="M7.41288 8.27939C7.14794 8.27939 6.88128 8.19007 6.66143 8.00672L1.8989 4.03215C1.40122 3.61691 1.33466 2.87705 1.7499 2.37937C2.16513 1.88169 2.905 1.81513 3.40268 2.23037L8.16563 6.20493C8.66331 6.62017 8.72987 7.36003 8.31463 7.85771C8.08233 8.13597 7.74911 8.27939 7.41288 8.27939Z" fill="white"/>
<path d="M20.7811 4.03215L16.0181 8.00672C15.7987 8.19007 15.532 8.27939 15.2666 8.27939C14.9304 8.27939 14.5972 8.13597 14.3649 7.85771C13.9497 7.36003 14.0162 6.62017 14.5139 6.20493L19.2768 2.23037C19.7745 1.81513 20.5144 1.88169 20.9296 2.37937C21.3449 2.87705 21.2783 3.61691 20.7806 4.03215H20.7811Z" fill="white"/>
</g>
<defs>
<clipPath id="clip0_53_182">
<rect width="35.4783" height="32.3771" fill="white" transform="translate(0 0.311401)"/>
</clipPath>
</defs>
</svg>
