<svg width="61" height="60" viewBox="0 0 61 60" fill="none" xmlns="http://www.w3.org/2000/svg">
<path d="M35.5 42.5002H25.5M55.5 32.5002C49.3575 29.4327 40.4325 27.5002 30.5 27.5002C20.5675 27.5002 11.6425 29.4327 5.5 32.5002M18 37.5002C16.0109 37.5002 14.1032 38.2904 12.6967 39.6969C11.2902 41.1034 10.5 43.0111 10.5 45.0002C10.5 46.9893 11.2902 48.897 12.6967 50.3035C14.1032 51.71 16.0109 52.5002 18 52.5002C19.9891 52.5002 21.8968 51.71 23.3033 50.3035C24.7098 48.897 25.5 46.9893 25.5 45.0002C25.5 43.0111 24.7098 41.1034 23.3033 39.6969C21.8968 38.2904 19.9891 37.5002 18 37.5002ZM43 37.5002C41.0109 37.5002 39.1032 38.2904 37.6967 39.6969C36.2902 41.1034 35.5 43.0111 35.5 45.0002C35.5 46.9893 36.2902 48.897 37.6967 50.3035C39.1032 51.71 41.0109 52.5002 43 52.5002C44.9891 52.5002 46.8968 51.71 48.3033 50.3035C49.7098 48.897 50.5 46.9893 50.5 45.0002C50.5 43.0111 49.7098 41.1034 48.3033 39.6969C46.8968 38.2904 44.9891 37.5002 43 37.5002Z" stroke="white" stroke-width="5" stroke-linecap="round" stroke-linejoin="round"/>
<path d="M48 28.7502L45.355 11.7802C44.8175 8.3202 41.0575 6.4452 38.0225 8.1227L36.485 8.9727C34.6534 9.98744 32.5939 10.5198 30.5 10.5198C28.4061 10.5198 26.3466 9.98744 24.515 8.9727L22.9775 8.1227C19.9425 6.4477 16.1825 8.3227 15.645 11.7802L13 28.7502" stroke="white" stroke-width="5" stroke-linecap="round" stroke-linejoin="round"/>
</svg>
