<svg width="60" height="61" viewBox="0 0 60 61" fill="none" xmlns="http://www.w3.org/2000/svg">
<path d="M22.5 15.4998C22.5 19.0373 22.5 20.8048 21.4 21.8998C20.3025 22.9998 18.5375 22.9998 15 22.9998C11.4625 22.9998 9.695 22.9998 8.6 21.8998C7.5 20.8023 7.5 19.0373 7.5 15.4998C7.5 11.9623 7.5 10.1948 8.6 9.09979C9.6975 7.99979 11.4625 7.99979 15 7.99979C18.5375 7.99979 20.305 7.99979 21.4 9.09979C22.5 10.1973 22.5 11.9623 22.5 15.4998ZM22.5 15.4998H30M45 22.9998C41.4625 22.9998 39.695 22.9998 38.6 21.8998C37.5 20.8023 37.5 19.0373 37.5 15.4998C37.5 11.9623 37.5 10.1948 38.6 9.09979C39.6975 7.99979 41.4625 7.99979 45 7.99979C48.5375 7.99979 50.305 7.99979 51.4 9.09979C52.5 10.1973 52.5 11.9623 52.5 15.4998C52.5 19.0373 52.5 20.8048 51.4 21.8998C50.3025 22.9998 48.5375 22.9998 45 22.9998ZM45 22.9998V30.4998M37.5 45.4998C37.5 41.9623 37.5 40.1948 38.6 39.0998C39.6975 37.9998 41.4625 37.9998 45 37.9998C48.5375 37.9998 50.305 37.9998 51.4 39.0998C52.5 40.1973 52.5 41.9648 52.5 45.4998C52.5 49.0348 52.5 50.8023 51.4 51.8998C50.3025 52.9998 48.535 52.9998 45 52.9998C41.465 52.9998 39.6975 52.9998 38.6 51.8998C37.5 50.8023 37.5 49.0373 37.5 45.4998ZM37.5 45.4998H30M15 37.9998C18.5375 37.9998 20.305 37.9998 21.4 39.0998C22.5 40.1973 22.5 41.9623 22.5 45.4998C22.5 49.0373 22.5 50.8048 21.4 51.8998C20.3025 52.9998 18.5375 52.9998 15 52.9998C11.4625 52.9998 9.695 52.9998 8.6 51.8998C7.5 50.8023 7.5 49.0373 7.5 45.4998C7.5 41.9623 7.5 40.1948 8.6 39.0998C9.6975 37.9998 11.4625 37.9998 15 37.9998ZM15 37.9998V30.4998" stroke="white" stroke-width="5" stroke-linecap="round" stroke-linejoin="round"/>
</svg>
