<svg width="61" height="60" viewBox="0 0 61 60" fill="none" xmlns="http://www.w3.org/2000/svg">
<g clip-path="url(#clip0_0_125)">
<path d="M21.9286 53.5714H2.64285V51.2486C2.67032 48.6576 3.21846 46.0986 4.25468 43.7237C5.29089 41.3489 6.79403 39.2066 8.67473 37.4242C10.5554 35.6419 12.7753 34.2558 15.2024 33.3486C17.6294 32.4413 20.2142 32.0312 22.8029 32.1429C25.3677 32.2618 27.883 32.8917 30.2012 33.9956C32.5194 35.0995 34.5939 36.6552 36.3029 38.5714M58.3571 36.4286L41.2143 57.8571L32.6429 51.4286M21.9286 23.5714C24.7702 23.5714 27.4954 22.4426 29.5047 20.4333C31.514 18.424 32.6429 15.6987 32.6429 12.8571C32.6429 10.0155 31.514 7.29031 29.5047 5.28099C27.4954 3.27168 24.7702 2.14285 21.9286 2.14285C19.087 2.14285 16.3617 3.27168 14.3524 5.28099C12.3431 7.29031 11.2143 10.0155 11.2143 12.8571C11.2143 15.6987 12.3431 18.424 14.3524 20.4333C16.3617 22.4426 19.087 23.5714 21.9286 23.5714Z" stroke="white" stroke-width="5" stroke-linecap="round" stroke-linejoin="round"/>
</g>
<defs>
<clipPath id="clip0_0_125">
<rect width="60" height="60" fill="white" transform="translate(0.5)"/>
</clipPath>
</defs>
</svg>
