<svg width="253" height="48" viewBox="0 0 253 48" fill="none" xmlns="http://www.w3.org/2000/svg">
<g clip-path="url(#clip0_52_77)">
<path d="M34.8884 34.3876C38.0706 34.3876 40.6503 31.8078 40.6503 28.6256C40.6503 25.4434 38.0706 22.8636 34.8884 22.8636C31.7061 22.8636 29.1264 25.4434 29.1264 28.6256C29.1264 31.8078 31.7061 34.3876 34.8884 34.3876Z" fill="white"/>
<path d="M0 18.9149V19.7672C0 21.0023 0.674494 22.1381 1.75856 22.7295C8.45412 22.7092 15.4425 26.7881 22.6644 34.1285C22.9368 34.2772 23.1599 34.5027 23.3058 34.7769C25.5907 39.0702 30.0286 41.7373 34.8883 41.7373C35.704 41.7373 36.5028 41.6618 37.2772 41.5183C37.7135 44.0676 39.9828 45.9993 42.6761 45.8982C45.3497 45.7982 47.5463 43.6783 47.7374 41.0094C47.8751 39.087 46.9688 37.3389 45.5042 36.31C47.0769 34.1436 48.0041 31.4805 47.9994 28.6042C47.9884 21.3532 42.0301 15.5134 34.7791 15.5134H20.8222C19.9066 15.5134 19.052 15.9735 18.5477 16.7381L17.0721 18.9759C16.8031 19.5139 12.6126 19.1427 12.6126 18.266V16.9101C12.6126 16.1391 11.9875 15.514 11.2166 15.514H3.40093C1.52269 15.514 0 17.0367 0 18.9149ZM40.4104 41.003C41.4282 40.2937 42.41 39.528 43.3436 38.7164C44.0762 39.0481 44.5758 39.7853 44.5758 40.626C44.5758 41.7844 43.6335 42.7267 42.4751 42.7267C41.4462 42.7267 40.5881 41.9825 40.4104 41.0036V41.003ZM25.9514 28.6251C25.9514 23.6974 29.9606 19.6882 34.8883 19.6882C39.816 19.6882 43.8252 23.6974 43.8252 28.6251C43.8252 33.5528 39.816 37.562 34.8883 37.562C29.9606 37.562 25.9514 33.5528 25.9514 28.6251Z" fill="#15BFFD"/>
<path d="M15.342 12.8782C14.4653 12.8782 13.7542 12.1671 13.7542 11.2904V3.68566C13.7542 2.80899 14.4653 2.0979 15.342 2.0979C16.2186 2.0979 16.9297 2.80899 16.9297 3.68566V11.2904C16.9297 12.1671 16.2186 12.8782 15.342 12.8782Z" fill="white"/>
<path d="M10.0291 12.8782C9.67065 12.8782 9.30987 12.7574 9.01242 12.5093L2.569 7.13196C1.89567 6.57017 1.80562 5.56918 2.36741 4.89585C2.9292 4.22252 3.93019 4.13247 4.60352 4.69425L11.0475 10.0716C11.7209 10.6334 11.8109 11.6344 11.2491 12.3077C10.9348 12.6842 10.484 12.8782 10.0291 12.8782Z" fill="white"/>
<path d="M28.1155 7.13196L21.6715 12.5093C21.3747 12.7574 21.0139 12.8782 20.6549 12.8782C20.2 12.8782 19.7492 12.6842 19.4349 12.3077C18.8731 11.6344 18.9631 10.6334 19.6364 10.0716L26.0804 4.69425C26.7538 4.13247 27.7548 4.22252 28.3166 4.89585C28.8783 5.56918 28.7883 6.57017 28.115 7.13196H28.1155Z" fill="white"/>
</g>
<path d="M63.792 35L58.992 14.392H64.048L66.768 26.808L69.584 17.304V14.392H73.808L77.36 26.84L80.208 14.392H85.264L80.496 35H75.728L72.272 23.096L68.56 35H63.792ZM86.757 35V13.432H91.909V20.952C92.485 20.5253 93.1997 20.184 94.053 19.928C94.9063 19.6507 95.8237 19.512 96.805 19.512C98.8317 19.512 100.314 19.992 101.253 20.952C102.213 21.912 102.693 23.384 102.693 25.368V35H97.541V25.72C97.541 24.8453 97.3597 24.2267 96.997 23.864C96.6343 23.5013 95.9837 23.32 95.045 23.32C94.4903 23.32 93.925 23.448 93.349 23.704C92.773 23.96 92.293 24.28 91.909 24.664V35H86.757ZM106.812 17.432V13.56H112.412V17.432H106.812ZM107.228 35V23.64H104.988L105.436 19.832H112.38V35H107.228ZM121.295 35.32C120.079 35.32 118.927 35.2347 117.839 35.064C116.751 34.8933 115.887 34.68 115.247 34.424V30.488C115.994 30.808 116.858 31.0533 117.839 31.224C118.821 31.3947 119.695 31.48 120.463 31.48C121.381 31.48 122.042 31.4373 122.447 31.352C122.874 31.2667 123.087 31.032 123.087 30.648C123.087 30.2213 122.746 29.9013 122.063 29.688C121.381 29.4747 120.442 29.1653 119.247 28.76C117.861 28.2693 116.805 27.704 116.079 27.064C115.375 26.4027 115.023 25.432 115.023 24.152C115.023 22.6587 115.578 21.5173 116.687 20.728C117.818 19.9173 119.61 19.512 122.063 19.512C123.023 19.512 123.973 19.5867 124.911 19.736C125.85 19.8853 126.618 20.056 127.215 20.248V24.12C126.618 23.8427 125.935 23.64 125.167 23.512C124.399 23.384 123.706 23.32 123.087 23.32C122.298 23.32 121.626 23.3733 121.071 23.48C120.538 23.5653 120.271 23.7893 120.271 24.152C120.271 24.5573 120.57 24.8453 121.167 25.016C121.765 25.1653 122.629 25.4213 123.759 25.784C124.954 26.1467 125.882 26.5413 126.543 26.968C127.205 27.3733 127.674 27.864 127.951 28.44C128.229 29.016 128.367 29.7413 128.367 30.616C128.367 32.1307 127.77 33.2933 126.575 34.104C125.381 34.9147 123.621 35.32 121.295 35.32ZM136.747 35.32C134.87 35.32 133.483 34.84 132.587 33.88C131.712 32.92 131.275 31.5973 131.275 29.912V23.736H129.227V19.832H131.275V16.664L136.427 15.288V19.832H140.107L139.883 23.736H136.427V29.56C136.427 30.2853 136.608 30.7973 136.971 31.096C137.334 31.3733 137.878 31.512 138.603 31.512C139.222 31.512 139.851 31.4053 140.491 31.192V34.68C139.488 35.1067 138.24 35.32 136.747 35.32ZM147.148 35.32C145.484 35.32 144.289 34.9573 143.564 34.232C142.838 33.5067 142.476 32.344 142.476 30.744V13.432H147.628V30.232C147.628 30.7227 147.724 31.064 147.916 31.256C148.129 31.4267 148.438 31.512 148.844 31.512C149.42 31.512 149.932 31.4373 150.38 31.288V34.776C149.889 34.968 149.398 35.1067 148.908 35.192C148.438 35.2773 147.852 35.32 147.148 35.32ZM160.448 35.32C157.802 35.32 155.68 34.6693 154.08 33.368C152.48 32.0453 151.68 30.0613 151.68 27.416C151.68 25.0053 152.341 23.0853 153.664 21.656C154.986 20.2267 156.97 19.512 159.616 19.512C162.026 19.512 163.893 20.1307 165.216 21.368C166.538 22.6053 167.2 24.2693 167.2 26.36V29.08H156.448C156.682 30.0827 157.226 30.7867 158.08 31.192C158.954 31.576 160.138 31.768 161.632 31.768C162.464 31.768 163.306 31.6933 164.16 31.544C165.034 31.3947 165.76 31.2027 166.336 30.968V34.328C165.61 34.6693 164.746 34.9147 163.744 35.064C162.741 35.2347 161.642 35.32 160.448 35.32ZM156.448 26.104H162.72V25.432C162.72 24.6853 162.496 24.0987 162.048 23.672C161.6 23.224 160.842 23 159.776 23C158.538 23 157.674 23.256 157.184 23.768C156.693 24.2587 156.448 25.0373 156.448 26.104Z" fill="#15BFFD"/>
<path d="M179.783 35.32C176.177 35.32 173.425 34.4027 171.527 32.568C169.649 30.712 168.711 28.1413 168.711 24.856C168.711 21.4213 169.628 18.7653 171.463 16.888C173.319 15.0107 176.081 14.072 179.751 14.072C181.009 14.072 182.129 14.168 183.111 14.36C184.113 14.552 185.073 14.808 185.991 15.128V19.64C184.135 18.872 182.183 18.488 180.135 18.488C178.001 18.488 176.433 19 175.431 20.024C174.449 21.048 173.959 22.6587 173.959 24.856C173.959 26.9467 174.481 28.4827 175.527 29.464C176.572 30.4453 178.129 30.936 180.199 30.936C181.201 30.936 182.193 30.8507 183.175 30.68C184.156 30.488 185.105 30.2 186.023 29.816V34.36C185.127 34.6587 184.177 34.8933 183.175 35.064C182.172 35.2347 181.041 35.32 179.783 35.32ZM188.632 35V13.432H193.784V20.952C194.36 20.5253 195.075 20.184 195.928 19.928C196.781 19.6507 197.699 19.512 198.68 19.512C200.707 19.512 202.189 19.992 203.128 20.952C204.088 21.912 204.568 23.384 204.568 25.368V35H199.416V25.72C199.416 24.8453 199.235 24.2267 198.872 23.864C198.509 23.5013 197.859 23.32 196.92 23.32C196.365 23.32 195.8 23.448 195.224 23.704C194.648 23.96 194.168 24.28 193.784 24.664V35H188.632ZM211.931 35.32C210.971 35.32 210.075 35.1493 209.243 34.808C208.432 34.4667 207.781 33.944 207.291 33.24C206.8 32.5147 206.555 31.6187 206.555 30.552C206.555 28.9947 207.077 27.7787 208.123 26.904C209.189 26.008 210.779 25.56 212.891 25.56H217.115V25.208C217.115 24.44 216.859 23.896 216.347 23.576C215.835 23.2347 214.875 23.064 213.467 23.064C211.739 23.064 210.043 23.3307 208.379 23.864V20.536C209.125 20.2373 210.032 19.992 211.099 19.8C212.187 19.608 213.328 19.512 214.523 19.512C216.869 19.512 218.704 19.992 220.027 20.952C221.371 21.912 222.043 23.4373 222.043 25.528V35H217.531L217.275 33.72C216.72 34.232 216.005 34.6267 215.131 34.904C214.277 35.1813 213.211 35.32 211.931 35.32ZM213.562 32.152C214.373 32.152 215.077 32.0133 215.675 31.736C216.272 31.4587 216.752 31.1067 217.115 30.68V28.536H213.467C211.952 28.536 211.195 29.144 211.195 30.36C211.195 30.9147 211.387 31.352 211.771 31.672C212.155 31.992 212.752 32.152 213.562 32.152ZM226.156 17.432V13.56H231.756V17.432H226.156ZM226.572 35V23.64H224.332L224.78 19.832H231.724V35H226.572ZM235.007 35V19.832H239.807L239.967 21.144C240.586 20.7173 241.364 20.344 242.303 20.024C243.242 19.6827 244.244 19.512 245.311 19.512C247.274 19.512 248.703 19.9813 249.599 20.92C250.495 21.8587 250.943 23.3093 250.943 25.272V35H245.791V25.688C245.791 24.8347 245.61 24.2267 245.247 23.864C244.884 23.5013 244.234 23.32 243.295 23.32C242.74 23.32 242.175 23.448 241.599 23.704C241.023 23.96 240.543 24.28 240.159 24.664V35H235.007Z" fill="white"/>
<defs>
<clipPath id="clip0_52_77">
<rect width="48" height="43.8043" fill="white" transform="translate(0 2.0979)"/>
</clipPath>
</defs>
</svg>
