<svg width="32" height="32" viewBox="0 0 32 32" fill="none" xmlns="http://www.w3.org/2000/svg">
<path d="M15.7656 24.1049C20.2005 24.1049 23.7958 20.5096 23.7958 16.0747C23.7958 11.6397 20.2005 8.04443 15.7656 8.04443C11.3306 8.04443 7.73535 11.6397 7.73535 16.0747C7.73535 20.5096 11.3306 24.1049 15.7656 24.1049Z" fill="white"/>
<path d="M24.4438 5.46533L15.7709 17.9987L11.0723 13.4511V15.6871L15.9412 20.4618L24.4438 8.12755V5.46533Z" fill="#D0CFCE"/>
<path d="M23.148 12.8849C23.5652 13.8704 23.7792 14.9299 23.7773 16C23.7773 20.4182 20.1956 24 15.7773 24C11.3591 24 7.77734 20.4182 7.77734 16C7.77734 11.5818 11.3591 8 15.7773 8C17.2293 8 18.5907 8.38667 19.7645 9.06311" stroke="#15BFFD" stroke-width="2" stroke-linecap="round" stroke-linejoin="round"/>
<path d="M24.2543 5.67603L15.777 17.9258L11.1846 13.4814V15.6667L15.9437 20.3334L24.2543 8.2778V5.67603Z" stroke="#15BFFD" stroke-width="2" stroke-linecap="round" stroke-linejoin="round"/>
</svg>
